# xmcd
#
# Track frame offsets: 
#        150
#        24135
#        36002
#        53885
#        79130
#        110445
#        132625
#        155887
#        165832
#        179257
#        212300
#        272385
#
# Disc length: 4513 seconds
#
# Revision: 2
# Processed by: cddbd v1.5.2PL0 Copyright (c) Steve Scherf et al.
# Submitted via: ExactAudioCopy v1.0b3
#
DISCID=92119f0c
DTITLE=LORIN MAAZEL - LORIN MAAZEL conducts RAVEL
DYEAR=1997
DGENRE=Classical
TTITLE0=Daphnis et Chloe Suite No. 1
TTITLE1=Daphnis et Chloe Suite No. 2
TTITLE2=Rapsodie espagnole: I. Prelude a la nuit
TTITLE3=Rapsodie espagnole: II. Malaguena
TTITLE4=Rapsodie espagnole: III. Habanera
TTITLE5=Daphnis et Chloe Suite No.2, Danse generale
TTITLE6=Papsodie espagnole, I Prelude a lanuit
TTITLE7=Papsodie espagnole, II Malaguena
TTITLE8=Papsodie espagnole, III Habanera
TTITLE9=Papsodie espagnole, IV Feria
TTITLE10=La Valse
TTITLE11=Bolero
EXTD=
EXTT0=
EXTT1=
EXTT2=
EXTT3=
EXTT4=
EXTT5=
EXTT6=
EXTT7=
EXTT8=
EXTT9=
EXTT10=
EXTT11=
PLAYORDER=
